cl__1 = 1e+22;
Point(1) = {3, -7.347638122934264e-16, -2.449212707644755e-16, cl__1};
Point(2) = {2.5, -6.123031769111886e-16, -1.224606353822377e-16, cl__1};
p1 = newp;
Point(p1 + 1) = {2.963065021785413, 0.4693033951206926, -2.449212707644755e-16};
Point(p1 + 2) = {2.85316954888546, 0.9270509831248421, -2.449212707644755e-16};
Point(p1 + 3) = {2.673019572565104, 1.36197149921864, -2.449212707644755e-16};
Point(p1 + 4) = {2.427050983124842, 1.763355756877419, -2.449212707644755e-16};
Point(p1 + 5) = {2.121320343559643, 2.121320343559642, -2.449212707644755e-16};
Point(p1 + 6) = {1.763355756877419, 2.427050983124842, -2.449212707644755e-16};
Point(p1 + 7) = {1.36197149921864, 2.673019572565103, -2.449212707644755e-16};
Point(p1 + 8) = {0.9270509831248424, 2.85316954888546, -2.449212707644755e-16};
Point(p1 + 9) = {0.4693033951206927, 2.963065021785413, -2.449212707644755e-16};
Point(p1 + 10) = {1.836909530733566e-16, 3, -2.449212707644755e-16};
Point(p1 + 11) = {-0.4693033951206931, 2.963065021785413, -2.449212707644755e-16};
Point(p1 + 12) = {-0.927050983124842, 2.853169548885461, -2.449212707644755e-16};
Point(p1 + 13) = {-1.36197149921864, 2.673019572565104, -2.449212707644755e-16};
Point(p1 + 14) = {-1.763355756877419, 2.427050983124842, -2.449212707644755e-16};
Point(p1 + 15) = {-2.121320343559642, 2.121320343559643, -2.449212707644755e-16};
Point(p1 + 16) = {-2.427050983124842, 1.76335575687742, -2.449212707644755e-16};
Point(p1 + 17) = {-2.673019572565103, 1.361971499218641, -2.449212707644755e-16};
Point(p1 + 18) = {-2.85316954888546, 0.9270509831248426, -2.449212707644755e-16};
Point(p1 + 19) = {-2.963065021785413, 0.469303395120693, -2.449212707644755e-16};
Point(p1 + 20) = {-3, 3.673819061467132e-16, -2.449212707644755e-16};
Point(p1 + 21) = {-2.963065021785413, -0.4693033951206922, -2.449212707644755e-16};
Point(p1 + 22) = {-2.85316954888546, -0.9270509831248432, -2.449212707644755e-16};
Point(p1 + 23) = {-2.673019572565104, -1.361971499218639, -2.449212707644755e-16};
Point(p1 + 24) = {-2.427050983124843, -1.763355756877419, -2.449212707644755e-16};
Point(p1 + 25) = {-2.121320343559643, -2.121320343559642, -2.449212707644755e-16};
Point(p1 + 26) = {-1.76335575687742, -2.427050983124842, -2.449212707644755e-16};
Point(p1 + 27) = {-1.361971499218641, -2.673019572565103, -2.449212707644755e-16};
Point(p1 + 28) = {-0.9270509831248427, -2.85316954888546, -2.449212707644755e-16};
Point(p1 + 29) = {-0.4693033951206931, -2.963065021785413, -2.449212707644755e-16};
Point(p1 + 30) = {-5.510728592200698e-16, -3, -2.449212707644755e-16};
Point(p1 + 31) = {0.469303395120692, -2.963065021785413, -2.449212707644755e-16};
Point(p1 + 32) = {0.9270509831248417, -2.853169548885461, -2.449212707644755e-16};
Point(p1 + 33) = {1.36197149921864, -2.673019572565104, -2.449212707644755e-16};
Point(p1 + 34) = {1.763355756877419, -2.427050983124843, -2.449212707644755e-16};
Point(p1 + 35) = {2.121320343559642, -2.121320343559643, -2.449212707644755e-16};
Point(p1 + 36) = {2.427050983124842, -1.76335575687742, -2.449212707644755e-16};
Point(p1 + 37) = {2.673019572565103, -1.361971499218641, -2.449212707644755e-16};
Point(p1 + 38) = {2.85316954888546, -0.9270509831248428, -2.449212707644755e-16};
Point(p1 + 39) = {2.963065021785413, -0.4693033951206933, -2.449212707644755e-16};
Spline(1) = {1, p1 + 1, p1 + 2, p1 + 3, p1 + 4, p1 + 5, p1 + 6, p1 + 7, p1 + 8, p1 + 9, p1 + 10, p1 + 11, p1 + 12, p1 + 13, p1 + 14, p1 + 15, p1 + 16, p1 + 17, p1 + 18, p1 + 19, p1 + 20, p1 + 21, p1 + 22, p1 + 23, p1 + 24, p1 + 25, p1 + 26, p1 + 27, p1 + 28, p1 + 29, p1 + 30, p1 + 31, p1 + 32, p1 + 33, p1 + 34, p1 + 35, p1 + 36, p1 + 37, p1 + 38, p1 + 39, 1};
p2 = newp;
Point(p2 + 1) = {2.987688340595138, -7.31748425026768e-16, 0.1564344650402309};
Point(p2 + 2) = {2.951056516295154, -7.227765120687949e-16, 0.3090169943749474};
Point(p2 + 3) = {2.891006524188368, -7.080689916926043e-16, 0.4539904997395467};
Point(p2 + 4) = {2.809016994374947, -6.879880118613195e-16, 0.5877852522924731};
Point(p2 + 5) = {2.707106781186547, -6.630280329433381e-16, 0.7071067811865475};
Point(p2 + 6) = {2.587785252292473, -6.338036524570412e-16, 0.8090169943749475};
Point(p2 + 7) = {2.453990499739547, -6.0103447164016e-16, 0.8910065241883678};
Point(p2 + 8) = {2.309016994374947, -5.655273764790818e-16, 0.9510565162951535};
Point(p2 + 9) = {2.156434465040231, -5.281566694979652e-16, 0.9876883405951378};
Point(p2 + 10) = {2, -4.898425415289509e-16, 1};
Point(p2 + 11) = {1.843565534959769, -4.515284135599366e-16, 0.9876883405951377};
Point(p2 + 12) = {1.690983005625053, -4.1415770657882e-16, 0.9510565162951536};
Point(p2 + 13) = {1.546009500260453, -3.786506114177418e-16, 0.8910065241883679};
Point(p2 + 14) = {1.412214747707527, -3.458814306008606e-16, 0.8090169943749475};
Point(p2 + 15) = {1.292893218813453, -3.166570501145638e-16, 0.7071067811865476};
Point(p2 + 16) = {1.190983005625053, -2.916970711965823e-16, 0.5877852522924732};
Point(p2 + 17) = {1.108993475811632, -2.716160913652975e-16, 0.4539904997395469};
Point(p2 + 18) = {1.048943483704846, -2.569085709891069e-16, 0.3090169943749475};
Point(p2 + 19) = {1.012311659404862, -2.479366580311337e-16, 0.156434465040231};
Point(p2 + 20) = {1, -2.449212707644755e-16, 1.224606353822377e-16};
Point(p2 + 21) = {1.012311659404862, -2.479366580311337e-16, -0.1564344650402307};
Point(p2 + 22) = {1.048943483704846, -2.569085709891069e-16, -0.3090169943749477};
Point(p2 + 23) = {1.108993475811632, -2.716160913652974e-16, -0.4539904997395462};
Point(p2 + 24) = {1.190983005625053, -2.916970711965823e-16, -0.587785252292473};
Point(p2 + 25) = {1.292893218813452, -3.166570501145637e-16, -0.7071067811865475};
Point(p2 + 26) = {1.412214747707527, -3.458814306008605e-16, -0.8090169943749473};
Point(p2 + 27) = {1.546009500260453, -3.786506114177418e-16, -0.8910065241883678};
Point(p2 + 28) = {1.690983005625053, -4.1415770657882e-16, -0.9510565162951535};
Point(p2 + 29) = {1.843565534959769, -4.515284135599366e-16, -0.9876883405951377};
Point(p2 + 30) = {2, -4.898425415289509e-16, -1};
Point(p2 + 31) = {2.156434465040231, -5.281566694979651e-16, -0.9876883405951378};
Point(p2 + 32) = {2.309016994374947, -5.655273764790818e-16, -0.9510565162951536};
Point(p2 + 33) = {2.453990499739547, -6.0103447164016e-16, -0.8910065241883679};
Point(p2 + 34) = {2.587785252292473, -6.338036524570412e-16, -0.8090169943749476};
Point(p2 + 35) = {2.707106781186547, -6.63028032943338e-16, -0.7071067811865477};
Point(p2 + 36) = {2.809016994374947, -6.879880118613195e-16, -0.5877852522924734};
Point(p2 + 37) = {2.891006524188368, -7.080689916926043e-16, -0.453990499739547};
Point(p2 + 38) = {2.951056516295154, -7.227765120687949e-16, -0.3090169943749476};
Point(p2 + 39) = {2.987688340595138, -7.31748425026768e-16, -0.1564344650402311};
Spline(2) = {1, p2 + 1, p2 + 2, p2 + 3, p2 + 4, p2 + 5, p2 + 6, p2 + 7, p2 + 8, p2 + 9, p2 + 10, p2 + 11, p2 + 12, p2 + 13, p2 + 14, p2 + 15, p2 + 16, p2 + 17, p2 + 18, p2 + 19, p2 + 20, p2 + 21, p2 + 22, p2 + 23, p2 + 24, p2 + 25, p2 + 26, p2 + 27, p2 + 28, p2 + 29, p2 + 30, p2 + 31, p2 + 32, p2 + 33, p2 + 34, p2 + 35, p2 + 36, p2 + 37, p2 + 38, p2 + 39, 1};
p3 = newp;
Point(p3 + 1) = {2.469220851487845, 0.3910861626005772, -1.224606353822377e-16};
Point(p3 + 2) = {2.377641290737884, 0.7725424859373685, -1.224606353822377e-16};
Point(p3 + 3) = {2.22751631047092, 1.134976249348867, -1.224606353822377e-16};
Point(p3 + 4) = {2.022542485937369, 1.469463130731183, -1.224606353822377e-16};
Point(p3 + 5) = {1.767766952966369, 1.767766952966369, -1.224606353822377e-16};
Point(p3 + 6) = {1.469463130731183, 2.022542485937369, -1.224606353822377e-16};
Point(p3 + 7) = {1.134976249348867, 2.22751631047092, -1.224606353822377e-16};
Point(p3 + 8) = {0.7725424859373686, 2.377641290737884, -1.224606353822377e-16};
Point(p3 + 9) = {0.3910861626005773, 2.469220851487845, -1.224606353822377e-16};
Point(p3 + 10) = {1.530757942277972e-16, 2.5, -1.224606353822377e-16};
Point(p3 + 11) = {-0.3910861626005776, 2.469220851487844, -1.224606353822377e-16};
Point(p3 + 12) = {-0.7725424859373684, 2.377641290737884, -1.224606353822377e-16};
Point(p3 + 13) = {-1.134976249348867, 2.22751631047092, -1.224606353822377e-16};
Point(p3 + 14) = {-1.469463130731183, 2.022542485937369, -1.224606353822377e-16};
Point(p3 + 15) = {-1.767766952966369, 1.767766952966369, -1.224606353822377e-16};
Point(p3 + 16) = {-2.022542485937368, 1.469463130731183, -1.224606353822377e-16};
Point(p3 + 17) = {-2.22751631047092, 1.134976249348867, -1.224606353822377e-16};
Point(p3 + 18) = {-2.377641290737884, 0.7725424859373687, -1.224606353822377e-16};
Point(p3 + 19) = {-2.469220851487844, 0.3910861626005774, -1.224606353822377e-16};
Point(p3 + 20) = {-2.5, 3.061515884555943e-16, -1.224606353822377e-16};
Point(p3 + 21) = {-2.469220851487845, -0.3910861626005768, -1.224606353822377e-16};
Point(p3 + 22) = {-2.377641290737884, -0.7725424859373693, -1.224606353822377e-16};
Point(p3 + 23) = {-2.22751631047092, -1.134976249348866, -1.224606353822377e-16};
Point(p3 + 24) = {-2.022542485937369, -1.469463130731183, -1.224606353822377e-16};
Point(p3 + 25) = {-1.767766952966369, -1.767766952966369, -1.224606353822377e-16};
Point(p3 + 26) = {-1.469463130731183, -2.022542485937368, -1.224606353822377e-16};
Point(p3 + 27) = {-1.134976249348867, -2.22751631047092, -1.224606353822377e-16};
Point(p3 + 28) = {-0.7725424859373689, -2.377641290737884, -1.224606353822377e-16};
Point(p3 + 29) = {-0.3910861626005776, -2.469220851487844, -1.224606353822377e-16};
Point(p3 + 30) = {-4.592273826833915e-16, -2.5, -1.224606353822377e-16};
Point(p3 + 31) = {0.3910861626005767, -2.469220851487845, -1.224606353822377e-16};
Point(p3 + 32) = {0.7725424859373681, -2.377641290737884, -1.224606353822377e-16};
Point(p3 + 33) = {1.134976249348867, -2.22751631047092, -1.224606353822377e-16};
Point(p3 + 34) = {1.469463130731182, -2.022542485937369, -1.224606353822377e-16};
Point(p3 + 35) = {1.767766952966368, -1.767766952966369, -1.224606353822377e-16};
Point(p3 + 36) = {2.022542485937368, -1.469463130731183, -1.224606353822377e-16};
Point(p3 + 37) = {2.22751631047092, -1.134976249348867, -1.224606353822377e-16};
Point(p3 + 38) = {2.377641290737884, -0.7725424859373691, -1.224606353822377e-16};
Point(p3 + 39) = {2.469220851487844, -0.3910861626005777, -1.224606353822377e-16};
Spline(3) = {2, p3 + 1, p3 + 2, p3 + 3, p3 + 4, p3 + 5, p3 + 6, p3 + 7, p3 + 8, p3 + 9, p3 + 10, p3 + 11, p3 + 12, p3 + 13, p3 + 14, p3 + 15, p3 + 16, p3 + 17, p3 + 18, p3 + 19, p3 + 20, p3 + 21, p3 + 22, p3 + 23, p3 + 24, p3 + 25, p3 + 26, p3 + 27, p3 + 28, p3 + 29, p3 + 30, p3 + 31, p3 + 32, p3 + 33, p3 + 34, p3 + 35, p3 + 36, p3 + 37, p3 + 38, p3 + 39, 2};
p4 = newp;
Point(p4 + 1) = {2.493844170297569, -6.107954832778595e-16, 0.07821723252011543};
Point(p4 + 2) = {2.475528258147577, -6.063095267988729e-16, 0.1545084971874737};
Point(p4 + 3) = {2.445503262094184, -5.989557666107776e-16, 0.2269952498697734};
Point(p4 + 4) = {2.404508497187474, -5.889152766951353e-16, 0.2938926261462366};
Point(p4 + 5) = {2.353553390593274, -5.764352872361445e-16, 0.3535533905932737};
Point(p4 + 6) = {2.293892626146237, -5.618230969929961e-16, 0.4045084971874737};
Point(p4 + 7) = {2.226995249869773, -5.454385065845554e-16, 0.4455032620941839};
Point(p4 + 8) = {2.154508497187474, -5.276849590040164e-16, 0.4755282581475768};
Point(p4 + 9) = {2.078217232520116, -5.08999605513458e-16, 0.4938441702975689};
Point(p4 + 10) = {2, -4.898425415289509e-16, 0.5};
Point(p4 + 11) = {1.921782767479884, -4.706854775444437e-16, 0.4938441702975688};
Point(p4 + 12) = {1.845491502812526, -4.520001240538855e-16, 0.4755282581475768};
Point(p4 + 13) = {1.773004750130227, -4.342465764733464e-16, 0.4455032620941839};
Point(p4 + 14) = {1.706107373853764, -4.178619860649058e-16, 0.4045084971874737};
Point(p4 + 15) = {1.646446609406726, -4.032497958217574e-16, 0.3535533905932738};
Point(p4 + 16) = {1.595491502812526, -3.907698063627666e-16, 0.2938926261462366};
Point(p4 + 17) = {1.554496737905816, -3.807293164471242e-16, 0.2269952498697734};
Point(p4 + 18) = {1.524471741852423, -3.733755562590289e-16, 0.1545084971874738};
Point(p4 + 19) = {1.506155829702431, -3.688895997800423e-16, 0.07821723252011549};
Point(p4 + 20) = {1.5, -3.673819061467132e-16, 6.123031769111886e-17};
Point(p4 + 21) = {1.506155829702431, -3.688895997800423e-16, -0.07821723252011537};
Point(p4 + 22) = {1.524471741852423, -3.733755562590289e-16, -0.1545084971874739};
Point(p4 + 23) = {1.554496737905816, -3.807293164471242e-16, -0.2269952498697731};
Point(p4 + 24) = {1.595491502812526, -3.907698063627666e-16, -0.2938926261462365};
Point(p4 + 25) = {1.646446609406726, -4.032497958217573e-16, -0.3535533905932737};
Point(p4 + 26) = {1.706107373853763, -4.178619860649057e-16, -0.4045084971874737};
Point(p4 + 27) = {1.773004750130227, -4.342465764733464e-16, -0.4455032620941839};
Point(p4 + 28) = {1.845491502812526, -4.520001240538854e-16, -0.4755282581475768};
Point(p4 + 29) = {1.921782767479884, -4.706854775444437e-16, -0.4938441702975688};
Point(p4 + 30) = {2, -4.898425415289509e-16, -0.5};
Point(p4 + 31) = {2.078217232520115, -5.08999605513458e-16, -0.4938441702975689};
Point(p4 + 32) = {2.154508497187474, -5.276849590040163e-16, -0.4755282581475768};
Point(p4 + 33) = {2.226995249869773, -5.454385065845554e-16, -0.4455032620941839};
Point(p4 + 34) = {2.293892626146237, -5.61823096992996e-16, -0.4045084971874738};
Point(p4 + 35) = {2.353553390593274, -5.764352872361444e-16, -0.3535533905932738};
Point(p4 + 36) = {2.404508497187474, -5.889152766951353e-16, -0.2938926261462367};
Point(p4 + 37) = {2.445503262094184, -5.989557666107776e-16, -0.2269952498697735};
Point(p4 + 38) = {2.475528258147577, -6.063095267988729e-16, -0.1545084971874738};
Point(p4 + 39) = {2.493844170297569, -6.107954832778595e-16, -0.07821723252011555};
Spline(4) = {2, p4 + 1, p4 + 2, p4 + 3, p4 + 4, p4 + 5, p4 + 6, p4 + 7, p4 + 8, p4 + 9, p4 + 10, p4 + 11, p4 + 12, p4 + 13, p4 + 14, p4 + 15, p4 + 16, p4 + 17, p4 + 18, p4 + 19, p4 + 20, p4 + 21, p4 + 22, p4 + 23, p4 + 24, p4 + 25, p4 + 26, p4 + 27, p4 + 28, p4 + 29, p4 + 30, p4 + 31, p4 + 32, p4 + 33, p4 + 34, p4 + 35, p4 + 36, p4 + 37, p4 + 38, p4 + 39, 2};
Curve Loop(1) = {-1, 2, 1, -2};
Surface(1) = {1};
Curve Loop(2) = {-3, 4, 3, -4};
Surface(2) = {2};
Surface Loop(10) = {1, 2};
Volume(10) = {10};
